<svg width="455" height="350" viewBox="0 0 455 350" fill="none" xmlns="http://www.w3.org/2000/svg">
<rect x="0.943359" y="0.137939" width="454" height="349.632" fill="#9D70F9"/>
<rect x="0.943359" y="0.137939" width="454" height="41.7471" fill="#FF5656"/>
<circle cx="398.147" cy="22.8766" r="6.15088" fill="white"/>
<circle cx="416.596" cy="22.8766" r="6.15088" fill="#F5F6F9"/>
<circle cx="435.053" cy="22.8766" r="6.15088" fill="white"/>
<path d="M307.139 78.5283V123.528H247.139V288.528H202.139V123.528H142.139V78.5283H307.139Z" fill="white"/>
<path d="M63.1387 165.328C60.872 169.862 59.7387 175.995 59.7387 183.728L59.9387 191.728V199.528C59.9387 206.595 59.2053 212.528 57.7387 217.328C56.4053 222.128 53.3387 227.262 48.5387 232.728C51.3387 235.262 53.2053 239.595 54.1387 245.728C55.072 251.862 55.6053 259.462 55.7387 268.528C55.872 278.528 56.3387 286.262 57.1387 291.728C58.072 297.328 60.272 301.462 63.7387 304.128C65.2053 305.328 66.872 306.128 68.7387 306.528C70.6053 306.928 72.8053 307.195 75.3387 307.328C78.272 307.595 80.3387 307.995 81.5387 308.528C82.872 309.195 83.5387 310.528 83.5387 312.528C83.5387 315.595 82.072 317.928 79.1387 319.528C76.3387 321.128 72.8053 321.928 68.5387 321.928C61.472 321.928 55.072 319.328 49.3387 314.128C43.6053 308.928 40.072 302.795 38.7387 295.728C38.2053 293.195 37.9387 290.128 37.9387 286.528C37.9387 284.395 38.072 281.062 38.3387 276.528L38.5387 266.528C38.5387 257.195 37.7387 250.862 36.1387 247.528C35.3387 245.662 33.1387 243.662 29.5387 241.528C27.0053 239.928 25.2053 238.595 24.1387 237.528C23.072 236.328 22.5387 234.728 22.5387 232.728C22.5387 231.128 22.872 229.595 23.5387 228.128C24.3387 226.928 25.3387 225.928 26.5387 225.128C27.872 224.328 29.2053 223.595 30.5387 222.928C33.2053 221.462 35.0053 220.262 35.9387 219.328C38.3387 217.195 39.8053 214.328 40.3387 210.728C41.0053 207.128 41.3387 201.928 41.3387 195.128V188.928C41.3387 178.128 42.272 169.262 44.1387 162.328C46.0053 155.395 50.072 150.662 56.3387 148.128C58.6053 147.195 61.6053 146.728 65.3387 146.728C69.6053 146.728 73.4053 147.328 76.7387 148.528C80.072 149.595 81.7387 151.262 81.7387 153.528C81.7387 157.662 80.872 160.262 79.1387 161.328C77.5387 162.262 75.7387 162.662 73.7387 162.528C71.7387 162.395 70.3387 162.328 69.5387 162.328C66.472 162.328 64.3387 163.328 63.1387 165.328ZM132.475 165.328C130.208 169.862 129.075 175.995 129.075 183.728L129.275 191.728V199.528C129.275 206.595 128.541 212.528 127.075 217.328C125.741 222.128 122.675 227.262 117.875 232.728C120.675 235.262 122.541 239.595 123.475 245.728C124.408 251.862 124.941 259.462 125.075 268.528C125.208 278.528 125.675 286.262 126.475 291.728C127.408 297.328 129.608 301.462 133.075 304.128C134.541 305.328 136.208 306.128 138.075 306.528C139.941 306.928 142.141 307.195 144.675 307.328C147.608 307.595 149.675 307.995 150.875 308.528C152.208 309.195 152.875 310.528 152.875 312.528C152.875 315.595 151.408 317.928 148.475 319.528C145.675 321.128 142.141 321.928 137.875 321.928C130.808 321.928 124.408 319.328 118.675 314.128C112.941 308.928 109.408 302.795 108.075 295.728C107.541 293.195 107.275 290.128 107.275 286.528C107.275 284.395 107.408 281.062 107.675 276.528L107.875 266.528C107.875 257.195 107.075 250.862 105.475 247.528C104.675 245.662 102.475 243.662 98.8746 241.528C96.3413 239.928 94.5413 238.595 93.4746 237.528C92.4079 236.328 91.8746 234.728 91.8746 232.728C91.8746 231.128 92.2079 229.595 92.8746 228.128C93.6746 226.928 94.6746 225.928 95.8746 225.128C97.2079 224.328 98.5413 223.595 99.8746 222.928C102.541 221.462 104.341 220.262 105.275 219.328C107.675 217.195 109.141 214.328 109.675 210.728C110.341 207.128 110.675 201.928 110.675 195.128V188.928C110.675 178.128 111.608 169.262 113.475 162.328C115.341 155.395 119.408 150.662 125.675 148.128C127.941 147.195 130.941 146.728 134.675 146.728C138.941 146.728 142.741 147.328 146.075 148.528C149.408 149.595 151.075 151.262 151.075 153.528C151.075 157.662 150.208 160.262 148.475 161.328C146.875 162.262 145.075 162.662 143.075 162.528C141.075 162.395 139.675 162.328 138.875 162.328C135.808 162.328 133.675 163.328 132.475 165.328ZM312.976 165.328C312.443 164.128 311.576 163.395 310.376 163.128C309.31 162.728 307.91 162.528 306.176 162.528C305.643 162.528 304.176 162.595 301.776 162.728C299.376 162.728 297.576 161.995 296.376 160.528C295.176 159.062 294.576 156.728 294.576 153.528C294.576 151.262 296.243 149.595 299.576 148.528C302.91 147.328 306.71 146.728 310.976 146.728C314.576 146.728 317.576 147.195 319.976 148.128C326.243 150.662 330.243 155.395 331.976 162.328C333.843 169.128 334.776 177.995 334.776 188.928V195.128C334.776 201.795 335.11 206.995 335.776 210.728C336.443 214.328 337.976 217.195 340.376 219.328C341.31 220.262 343.11 221.462 345.776 222.928C347.11 223.595 348.376 224.328 349.576 225.128C350.776 225.928 351.776 226.928 352.576 228.128C353.376 229.862 353.776 231.462 353.776 232.928C353.776 234.795 353.176 236.328 351.976 237.528C350.776 238.728 349.043 240.062 346.776 241.528C343.31 243.528 341.043 245.528 339.976 247.528C338.51 250.995 337.776 257.328 337.776 266.528L337.976 276.528C338.11 278.795 338.176 282.128 338.176 286.528C338.176 290.795 337.976 293.862 337.576 295.728C336.243 302.795 332.71 308.928 326.976 314.128C321.243 319.328 314.776 321.928 307.576 321.928C303.31 321.928 299.776 321.128 296.976 319.528C294.176 317.928 292.776 315.595 292.776 312.528C292.776 310.528 293.376 309.195 294.576 308.528C295.91 307.995 298.043 307.595 300.976 307.328C303.51 307.195 305.71 306.928 307.576 306.528C309.443 306.128 311.11 305.328 312.576 304.128C315.91 301.462 317.976 297.395 318.776 291.928C319.71 286.595 320.31 278.795 320.576 268.528C320.71 259.462 321.176 251.862 321.976 245.728C322.91 239.595 324.776 235.262 327.576 232.728C322.776 227.262 319.71 222.128 318.376 217.328C317.043 212.395 316.376 206.462 316.376 199.528V191.728V183.928C316.376 175.928 315.243 169.728 312.976 165.328ZM381.531 165.328C380.998 164.128 380.131 163.395 378.931 163.128C377.864 162.728 376.464 162.528 374.731 162.528C374.198 162.528 372.731 162.595 370.331 162.728C367.931 162.728 366.131 161.995 364.931 160.528C363.731 159.062 363.131 156.728 363.131 153.528C363.131 151.262 364.798 149.595 368.131 148.528C371.464 147.328 375.264 146.728 379.531 146.728C383.131 146.728 386.131 147.195 388.531 148.128C394.798 150.662 398.798 155.395 400.531 162.328C402.398 169.128 403.331 177.995 403.331 188.928V195.128C403.331 201.795 403.664 206.995 404.331 210.728C404.998 214.328 406.531 217.195 408.931 219.328C409.864 220.262 411.664 221.462 414.331 222.928C415.664 223.595 416.931 224.328 418.131 225.128C419.331 225.928 420.331 226.928 421.131 228.128C421.931 229.862 422.331 231.462 422.331 232.928C422.331 234.795 421.731 236.328 420.531 237.528C419.331 238.728 417.598 240.062 415.331 241.528C411.864 243.528 409.598 245.528 408.531 247.528C407.064 250.995 406.331 257.328 406.331 266.528L406.531 276.528C406.664 278.795 406.731 282.128 406.731 286.528C406.731 290.795 406.531 293.862 406.131 295.728C404.798 302.795 401.264 308.928 395.531 314.128C389.798 319.328 383.331 321.928 376.131 321.928C371.864 321.928 368.331 321.128 365.531 319.528C362.731 317.928 361.331 315.595 361.331 312.528C361.331 310.528 361.931 309.195 363.131 308.528C364.464 307.995 366.598 307.595 369.531 307.328C372.064 307.195 374.264 306.928 376.131 306.528C377.998 306.128 379.664 305.328 381.131 304.128C384.464 301.462 386.531 297.395 387.331 291.928C388.264 286.595 388.864 278.795 389.131 268.528C389.264 259.462 389.731 251.862 390.531 245.728C391.464 239.595 393.331 235.262 396.131 232.728C391.331 227.262 388.264 222.128 386.931 217.328C385.598 212.395 384.931 206.462 384.931 199.528V191.728V183.928C384.931 175.928 383.798 169.728 381.531 165.328Z" fill="white"/>
</svg>
