<svg width="95" height="95" viewBox="0 0 109 92" fill="none" xmlns="http://www.w3.org/2000/svg">
<path d="M0.430833 0.355469L108.341 0.597152L108.109 91.2817L0.204102 91.04L0.430833 0.355469Z" fill="#9D70F9"/>
<path d="M0.430034 0.355469L108.34 0.562088L108.278 21.2364L0.368164 21.0298L0.430034 0.355469Z" fill="black"/>
<circle cx="12.0612" cy="10.4446" r="3.7009" fill="white"/>
<circle cx="23.863" cy="10.4446" r="3.7009" fill="white"/>
<circle cx="35.6648" cy="10.4446" r="3.7009" fill="white"/>
<path d="M41.9344 78.7324C40.5009 78.7324 39.1923 78.391 38.0096 77.709C36.8418 77.027 35.9108 76.1126 35.2165 74.966C34.5213 73.8044 34.1746 72.5196 34.1746 71.1116V65.7999C34.1596 65.4075 33.9898 65.088 33.6642 64.8416C33.3535 64.5803 32.9848 64.3479 32.5553 64.1446C32.1417 63.9273 31.7801 63.673 31.4694 63.3826C31.1588 63.0922 31.0039 62.7226 31.0039 62.2729C31.0039 61.8373 31.1588 61.4739 31.4694 61.1844C31.7801 60.894 32.1417 60.6396 32.5553 60.4222C32.9848 60.1899 33.3535 59.9506 33.6642 59.7033C33.9898 59.4419 34.1596 59.1374 34.1746 58.789V53.4333C34.1746 52.0394 34.5213 50.7696 35.2165 49.6229C35.9108 48.4613 36.8418 47.5399 38.0096 46.8579C39.1923 46.161 40.5009 45.8125 41.9344 45.8125H44.3289V51.125H41.9344C41.5058 51.125 41.1142 51.2271 40.7596 51.4295C40.4041 51.6328 40.1163 51.9162 39.8946 52.2788C39.6878 52.6272 39.5839 53.0118 39.5839 53.4333V58.9632C39.5549 59.4569 39.3991 59.8775 39.1184 60.226C38.8526 60.5595 38.557 60.886 38.2314 61.2055C37.9066 61.5108 37.6479 61.8664 37.4561 62.2729C37.6629 62.7226 37.9216 63.1001 38.2314 63.4045C38.557 63.709 38.8526 64.0285 39.1184 64.3629C39.3991 64.6824 39.5549 65.088 39.5839 65.5817V71.1116C39.5839 71.5472 39.6878 71.9397 39.8946 72.2882C40.1014 72.6358 40.3821 72.9121 40.7367 73.1154C41.0922 73.3187 41.4909 73.4199 41.9344 73.4199H44.3289V78.7324H41.9344Z" fill="white"/>
<path d="M62.9854 78.7319V73.4194H65.3807C65.8093 73.4194 66.2009 73.3182 66.5555 73.1149C66.9102 72.9116 67.1909 72.6353 67.3977 72.2877C67.6194 71.9392 67.7303 71.5468 67.7303 71.1112V65.5812C67.7602 65.0875 67.9081 64.6819 68.1738 64.3624C68.4396 64.028 68.7353 63.7085 69.0609 63.4041C69.3856 63.0996 69.6443 62.7221 69.837 62.2724C69.6443 61.8659 69.3856 61.5103 69.0609 61.205C68.7502 60.8855 68.4545 60.559 68.1738 60.2255C67.9081 59.877 67.7602 59.4564 67.7303 58.9627V53.4328C67.7303 53.0113 67.6194 52.6268 67.3977 52.2783C67.1909 51.9157 66.9102 51.6323 66.5555 51.429C66.2009 51.2266 65.8093 51.1246 65.3807 51.1246H62.9854V45.812H65.3807C66.8142 45.812 68.1149 46.1605 69.2826 46.8574C70.4654 47.5394 71.4034 48.4608 72.0986 49.6224C72.793 50.7691 73.1405 52.0389 73.1405 53.4328V58.7885C73.1555 59.1369 73.3174 59.4414 73.6281 59.7028C73.9387 59.9501 74.3004 60.1894 74.7149 60.4218C75.1434 60.6391 75.513 60.8935 75.8228 61.1839C76.1484 61.4734 76.3112 61.8368 76.3112 62.2724C76.3112 62.7221 76.1484 63.0917 75.8228 63.3821C75.513 63.6725 75.1434 63.9268 74.7149 64.1441C74.3004 64.3474 73.9387 64.5798 73.6281 64.8412C73.3174 65.0876 73.1555 65.407 73.1405 65.7995V71.1112C73.1405 72.5192 72.793 73.8039 72.0986 74.9655C71.4034 76.1121 70.4654 77.0265 69.2826 77.7085C68.1149 78.3905 66.8142 78.7319 65.3807 78.7319H62.9854Z" fill="white"/>
<path d="M34.4004 40.3562V32.2549H73.1222V40.3562H58.6875V78.7295H48.835V40.3562H34.4004Z" fill="white"/>
</svg>
